<svg xmlns="http://www.w3.org/2000/svg" width="251.62" height="35" viewBox="0 0 251.62 35"><rect class="svg__rect" x="0" y="0" width="115.31" height="35" fill="#F2E381"/><rect class="svg__rect" x="113.31" y="0" width="138.31" height="35" fill="#F0DB4F"/><path class="svg__text" d="M15.69 22L14.22 22L14.22 13.47L16.14 13.47L18.60 20.01L21.06 13.47L22.97 13.47L22.97 22L21.49 22L21.49 19.19L21.64 15.43L19.12 22L18.06 22L15.55 15.43L15.69 19.19L15.69 22ZM28.49 22L26.95 22L30.17 13.47L31.50 13.47L34.73 22L33.18 22L32.49 20.01L29.18 20.01L28.49 22ZM30.83 15.28L29.60 18.82L32.07 18.82L30.83 15.28ZM41.14 22L38.69 22L38.69 13.47L41.21 13.47Q42.34 13.47 43.21 13.97Q44.09 14.48 44.57 15.40Q45.05 16.33 45.05 17.52L45.05 17.52L45.05 17.95Q45.05 19.16 44.57 20.08Q44.08 21.00 43.19 21.50Q42.30 22 41.14 22L41.14 22ZM40.17 14.66L40.17 20.82L41.14 20.82Q42.30 20.82 42.93 20.09Q43.55 19.36 43.56 17.99L43.56 17.99L43.56 17.52Q43.56 16.13 42.96 15.40Q42.35 14.66 41.21 14.66L41.21 14.66L40.17 14.66ZM55.09 22L49.51 22L49.51 13.47L55.05 13.47L55.05 14.66L51.00 14.66L51.00 17.02L54.50 17.02L54.50 18.19L51.00 18.19L51.00 20.82L55.09 20.82L55.09 22ZM66.65 22L64.68 13.47L66.15 13.47L67.47 19.88L69.10 13.47L70.34 13.47L71.96 19.89L73.27 13.47L74.74 13.47L72.77 22L71.35 22L69.73 15.77L68.07 22L66.65 22ZM80.38 22L78.90 22L78.90 13.47L80.38 13.47L80.38 22ZM86.87 14.66L84.23 14.66L84.23 13.47L91.00 13.47L91.00 14.66L88.34 14.66L88.34 22L86.87 22L86.87 14.66ZM96.24 22L94.75 22L94.75 13.47L96.24 13.47L96.24 17.02L100.05 17.02L100.05 13.47L101.53 13.47L101.53 22L100.05 22L100.05 18.21L96.24 18.21L96.24 22Z" fill="#4D4D4D"/><path class="svg__text" d="M126.42 20.93L126.42 20.93L127.71 19.40Q128.38 20.27 129.16 20.27L129.16 20.27Q129.16 20.27 129.17 20.27L129.17 20.27Q129.68 20.27 129.95 19.96Q130.22 19.65 130.22 19.05L130.22 19.05L130.22 15.44L127.32 15.44L127.32 13.60L132.58 13.60L132.58 18.91Q132.58 20.54 131.75 21.36Q130.93 22.17 129.34 22.17L129.34 22.17Q128.41 22.17 127.66 21.85Q126.90 21.53 126.42 20.93ZM139.08 22L136.66 22L140.37 13.60L142.71 13.60L146.42 22L143.96 22L143.29 20.37L139.74 20.37L139.08 22ZM141.52 15.93L140.44 18.61L142.60 18.61L141.52 15.93ZM153.16 22L149.57 13.60L152.14 13.60L154.42 19.07L156.75 13.60L159.10 13.60L155.50 22L153.16 22ZM164.67 22L162.24 22L165.95 13.60L168.30 13.60L172.01 22L169.54 22L168.88 20.37L165.33 20.37L164.67 22ZM167.11 15.93L166.02 18.61L168.19 18.61L167.11 15.93ZM175.58 21.24L175.58 21.24L176.36 19.49Q176.92 19.86 177.67 20.09Q178.41 20.32 179.13 20.32L179.13 20.32Q180.50 20.32 180.50 19.64L180.50 19.64Q180.50 19.28 180.11 19.11Q179.72 18.93 178.86 18.74L178.86 18.74Q177.91 18.53 177.27 18.30Q176.63 18.06 176.18 17.55Q175.73 17.03 175.73 16.16L175.73 16.16Q175.73 15.39 176.15 14.77Q176.56 14.15 177.40 13.79Q178.23 13.43 179.44 13.43L179.44 13.43Q180.27 13.43 181.07 13.62Q181.88 13.80 182.49 14.17L182.49 14.17L181.76 15.93Q180.56 15.28 179.43 15.28L179.43 15.28Q178.72 15.28 178.40 15.49Q178.08 15.70 178.08 16.04L178.08 16.04Q178.08 16.37 178.46 16.54Q178.84 16.71 179.69 16.89L179.69 16.89Q180.65 17.10 181.28 17.33Q181.91 17.56 182.38 18.07Q182.84 18.58 182.84 19.46L182.84 19.46Q182.84 20.21 182.42 20.83Q182.00 21.44 181.16 21.80Q180.32 22.17 179.12 22.17L179.12 22.17Q178.10 22.17 177.14 21.92Q176.18 21.67 175.58 21.24ZM186.99 17.80L186.99 17.80Q186.99 16.54 187.59 15.54Q188.18 14.55 189.24 13.99Q190.29 13.43 191.61 13.43L191.61 13.43Q192.76 13.43 193.68 13.84Q194.61 14.25 195.22 15.02L195.22 15.02L193.71 16.39Q192.89 15.40 191.73 15.40L191.73 15.40Q191.04 15.40 190.51 15.70Q189.98 16 189.68 16.54Q189.38 17.09 189.38 17.80L189.38 17.80Q189.38 18.51 189.68 19.05Q189.98 19.60 190.51 19.90Q191.04 20.20 191.73 20.20L191.73 20.20Q192.89 20.20 193.71 19.22L193.71 19.22L195.22 20.58Q194.61 21.35 193.69 21.76Q192.76 22.17 191.61 22.17L191.61 22.17Q190.29 22.17 189.24 21.61Q188.18 21.05 187.59 20.05Q186.99 19.06 186.99 17.80ZM202.13 22L199.76 22L199.76 13.60L203.60 13.60Q204.74 13.60 205.58 13.98Q206.42 14.35 206.87 15.06Q207.33 15.76 207.33 16.71L207.33 16.71Q207.33 17.62 206.90 18.30Q206.48 18.98 205.69 19.36L205.69 19.36L207.50 22L204.95 22L203.43 19.77L202.13 19.77L202.13 22ZM202.13 15.47L202.13 17.93L203.45 17.93Q204.19 17.93 204.56 17.61Q204.93 17.29 204.93 16.71L204.93 16.71Q204.93 16.12 204.56 15.79Q204.19 15.47 203.45 15.47L203.45 15.47L202.13 15.47ZM214.50 22L212.12 22L212.12 13.60L214.50 13.60L214.50 22ZM222.05 22L219.67 22L219.67 13.60L223.52 13.60Q224.65 13.60 225.49 13.98Q226.33 14.35 226.79 15.06Q227.25 15.76 227.25 16.71L227.25 16.71Q227.25 17.66 226.79 18.35Q226.33 19.05 225.49 19.42Q224.65 19.80 223.52 19.80L223.52 19.80L222.05 19.80L222.05 22ZM222.05 15.47L222.05 17.93L223.37 17.93Q224.10 17.93 224.47 17.61Q224.85 17.29 224.85 16.71L224.85 16.71Q224.85 16.12 224.47 15.80Q224.10 15.47 223.37 15.47L223.37 15.47L222.05 15.47ZM233.79 15.48L231.21 15.48L231.21 13.60L238.73 13.60L238.73 15.48L236.17 15.48L236.17 22L233.79 22L233.79 15.48Z" fill="#000000" x="126.31"/></svg>