<svg width="148" height="43" viewBox="0 0 148 43" fill="none" xmlns="http://www.w3.org/2000/svg">
<g clip-path="url(#clip0_471_16720)">
<path d="M33.225 0.246094C29.8429 0.245183 26.5947 1.56799 24.1754 3.93151L25.4869 6.42342L24.9492 6.85623C23.8127 4.88731 22.184 3.24764 20.2227 2.09801C18.2614 0.948375 16.035 0.328271 13.7618 0.298547C6.62705 0.298547 0.8563 6.54147 0.8563 13.8598V29.5983C0.850744 29.7324 0.873076 29.8662 0.921861 29.9912C0.970646 30.1162 1.04485 30.2298 1.13976 30.3247C1.23466 30.4196 1.3482 30.4938 1.47324 30.5426C1.59828 30.5914 1.7321 30.6137 1.86621 30.6081H7.03366C7.15988 30.6099 7.28517 30.5863 7.40213 30.5389C7.51909 30.4914 7.62531 30.4209 7.71457 30.3316C7.80382 30.2424 7.87428 30.1361 7.92177 30.0192C7.96926 29.9022 7.99282 29.7769 7.99106 29.6507V13.6893C7.99106 10.0564 10.1944 7.13166 13.9454 7.13166C17.4472 7.13166 19.9523 9.75472 19.9523 13.6238V26.7391C19.9433 26.8691 19.9611 26.9996 20.0043 27.1226C20.0476 27.2455 20.1155 27.3584 20.2039 27.4542C20.2923 27.5499 20.3994 27.6266 20.5185 27.6796C20.6376 27.7325 20.7662 27.7606 20.8966 27.7621H25.7886C25.9189 27.7606 26.0476 27.7325 26.1667 27.6796C26.2858 27.6266 26.3929 27.5499 26.4813 27.4542C26.5697 27.3584 26.6376 27.2455 26.6809 27.1226C26.7242 26.9996 26.7418 26.8691 26.7329 26.7391V13.6238C26.6748 12.7862 26.791 11.9456 27.0742 11.1553C27.3574 10.3649 27.8014 9.6418 28.3783 9.03172C28.9551 8.42163 29.6521 7.9378 30.4254 7.61075C31.1987 7.28371 32.0314 7.12058 32.8709 7.13166C36.6088 7.13166 38.6941 10.1088 38.6941 13.6893V29.6245C38.7043 29.8842 38.8157 30.1297 39.0043 30.3086C39.193 30.4874 39.444 30.5855 39.704 30.5819H44.819C44.9536 30.5895 45.0883 30.5686 45.2143 30.5205C45.3403 30.4725 45.4546 30.3983 45.55 30.303C45.6453 30.2077 45.7194 30.0933 45.7675 29.9673C45.8156 29.8413 45.8365 29.7066 45.8289 29.572V13.8336C45.8289 6.489 40.3073 0.246094 33.225 0.246094Z" fill="#75EEA5"/>
<path d="M79.5607 0.83599H74.8654C74.7349 0.826886 74.6039 0.845008 74.4808 0.889203C74.3576 0.933398 74.245 1.00271 74.15 1.09273C74.0551 1.18275 73.9799 1.29151 73.9292 1.41213C73.8785 1.53275 73.8534 1.66258 73.8555 1.79341V2.43606L75.5212 5.05914L75.0622 5.50505C73.6872 3.8842 71.9806 2.57716 70.0574 1.67215C68.1343 0.767138 66.0394 0.285208 63.9141 0.258911C59.9523 0.446798 56.2141 2.14989 53.4725 5.01607C50.7309 7.88225 49.1955 11.6923 49.1837 15.6586C49.1719 19.6249 50.6846 23.444 53.4091 26.3264C56.1337 29.2089 59.8616 30.9341 63.8223 31.1456C65.9576 31.1227 68.0633 30.6426 69.9976 29.7377C71.9319 28.8327 73.6498 27.524 75.0359 25.8994L75.4294 26.2142L73.7637 28.9422V29.5455C73.7619 29.6786 73.7869 29.8107 73.837 29.934C73.8871 30.0574 73.9614 30.1694 74.0556 30.2635C74.1497 30.3577 74.2617 30.432 74.3851 30.4821C74.5084 30.5322 74.6405 30.5572 74.7736 30.5554H79.5607C79.6953 30.563 79.83 30.5421 79.956 30.494C80.082 30.446 80.1964 30.3718 80.2917 30.2765C80.387 30.1812 80.4612 30.0668 80.5092 29.9408C80.5573 29.8148 80.5782 29.6801 80.5706 29.5455V1.79341C80.5769 1.66145 80.5547 1.52969 80.5055 1.40711C80.4562 1.28452 80.3811 1.174 80.2852 1.0831C80.1893 0.992211 80.075 0.923085 79.95 0.880438C79.8249 0.83779 79.6921 0.822627 79.5607 0.83599ZM63.8223 24.5092C61.4883 24.5092 59.2499 23.582 57.5995 21.9316C55.9491 20.2812 55.0219 18.0428 55.0219 15.7088C55.0219 13.3748 55.9491 11.1364 57.5995 9.48599C59.2499 7.83559 61.4883 6.90841 63.8223 6.90841C66.1563 6.90841 68.3947 7.83559 70.0451 9.48599C71.6955 11.1364 72.6227 13.3748 72.6227 15.7088C72.6227 18.0428 71.6955 20.2812 70.0451 21.9316C68.3947 23.582 66.1563 24.5092 63.8223 24.5092Z" fill="#75EEA5"/>
<path d="M146.66 0.83599H141.965C141.835 0.826886 141.704 0.845008 141.58 0.889203C141.457 0.933398 141.345 1.00271 141.25 1.09273C141.155 1.18275 141.08 1.29151 141.029 1.41213C140.978 1.53275 140.953 1.66258 140.955 1.79341V2.43606L142.621 5.05914L142.162 5.50505C140.787 3.8842 139.08 2.57716 137.157 1.67215C135.234 0.767138 133.139 0.285208 131.014 0.258911C126.913 0.258911 122.98 1.88805 120.08 4.78793C117.18 7.6878 115.551 11.6209 115.551 15.7219C115.551 19.823 117.18 23.756 120.08 26.6559C122.98 29.5558 126.913 31.1849 131.014 31.1849C133.149 31.162 135.255 30.6819 137.189 29.777C139.123 28.8721 140.841 27.5633 142.227 25.9388L142.621 26.2536L140.955 28.9816V29.5848C140.953 29.718 140.978 29.8501 141.028 29.9734C141.079 30.0967 141.153 30.2087 141.247 30.3029C141.341 30.397 141.453 30.4713 141.577 30.5215C141.7 30.5716 141.832 30.5965 141.965 30.5947H146.66C146.795 30.6023 146.93 30.5814 147.056 30.5334C147.182 30.4853 147.296 30.4112 147.391 30.3158C147.487 30.2205 147.561 30.1061 147.609 29.9801C147.657 29.8542 147.678 29.7195 147.67 29.5848V1.79341C147.677 1.66145 147.654 1.52969 147.605 1.40711C147.556 1.28452 147.481 1.174 147.385 1.0831C147.289 0.992211 147.175 0.923085 147.05 0.880438C146.925 0.83779 146.792 0.822627 146.66 0.83599ZM131.014 24.5092C128.68 24.5092 126.441 23.582 124.791 21.9316C123.141 20.2812 122.213 18.0428 122.213 15.7088C122.213 13.3748 123.141 11.1364 124.791 9.48599C126.441 7.83559 128.68 6.90841 131.014 6.90841C133.348 6.90841 135.586 7.83559 137.237 9.48599C138.887 11.1364 139.814 13.3748 139.814 15.7088C139.814 18.0428 138.887 20.2812 137.237 21.9316C135.586 23.582 133.348 24.5092 131.014 24.5092Z" fill="#75EEA5"/>
<path d="M111.692 0.836614H106.879C106.105 0.836614 105.686 1.25631 105.686 1.66289V16.1816C105.754 17.1966 105.606 18.2146 105.252 19.1684C104.898 20.1222 104.346 20.9901 103.632 21.715C102.918 22.44 102.059 23.0054 101.111 23.3741C100.163 23.7428 99.1471 23.9064 98.1311 23.8541C93.908 23.8541 91.18 20.7064 91.18 16.1816V1.66289C91.18 1.25631 90.5242 0.836614 90.1046 0.836614H84.8584C84.6453 0.854468 84.4453 0.947259 84.294 1.09852C84.1428 1.24977 84.05 1.44972 84.0321 1.66289V16.0898C83.99 19.8609 85.4425 23.4954 88.0722 26.1987C90.7018 28.9021 94.2947 30.4545 98.0655 30.5167C101.669 30.52 105.149 29.2044 107.85 26.8181L108.125 27.0673L105.987 29.9789V31.1462C105.987 34.1234 101.515 35.789 98.9049 35.789H97.2393C97.1056 35.7802 96.9714 35.798 96.8447 35.8415C96.7179 35.885 96.6011 35.9533 96.501 36.0424C96.4009 36.1315 96.3195 36.2397 96.2616 36.3605C96.2037 36.4814 96.1705 36.6126 96.1638 36.7465V41.4942C96.1872 41.7609 96.3115 42.0085 96.5114 42.1865C96.7113 42.3645 96.9718 42.4593 97.2393 42.4516H98.9049C106.879 42.4516 112.702 37.8088 112.702 29.0609V1.66289C112.667 1.42429 112.544 1.20747 112.357 1.05471C112.17 0.901952 111.933 0.824202 111.692 0.836614Z" fill="#75EEA5"/>
</g>
<defs>
<clipPath id="clip0_471_16720">
<rect width="146.879" height="42.2314" fill="white" transform="translate(0.804688 0.246094)"/>
</clipPath>
</defs>
</svg>
