<svg xmlns="http://www.w3.org/2000/svg" viewBox="0 0 52 52" id="sofa">
<!-- #0096e6 -->
<path fill="currentColor" d="M43.92 7.39v11.59c0 .55-.44 1-1 1-.55 0-1-.45-1-1V7.39c0-1.84-1.13-3.39-2.48-3.39H12.75c-1.34 0-2.48 1.55-2.48 3.39v11.59c0 .55-.45 1-1 1s-1-.45-1-1V7.39C8.27 4.42 10.28 2 12.75 2h26.69c2.47 0 4.48 2.42 4.48 5.39zM39.33 24.16c-1.18-1.7-2.95-2.79-4.92-2.79h-17.3c-1.78 0-3.39.88-4.56 2.31-1.16 1.42-1.88 3.37-1.88 5.53v3.58a.966.966 0 0 0 .3.7c.18.18.43.29.7.29h28.18a.997.997 0 0 0 1-1v-3.57c0-1.92-.57-3.68-1.52-5.05zm-.48 7.62H12.67v-2.57c0-3.17 2.03-5.84 4.44-5.84h17.3c2.4 0 4.44 2.67 4.44 5.84v2.57z"></path>
<path fill="#174885" d="M38.85 29.21v2.57H12.67v-2.57c0-3.17 2.03-5.84 4.44-5.84h17.3c2.4 0 4.44 2.67 4.44 5.84z"></path>
<path fill="#174885" d="M41.92 7.39v11.27c-1.01.77-1.87 2.14-2.54 4.11-.03.1-.05.21-.05.32v1.07c-1.18-1.7-2.95-2.79-4.92-2.79h-17.3c-1.78 0-3.39.88-4.56 2.31l-.03-2.32c0-.21-.07-.41-.19-.58-.63-.87-1.32-1.52-2.06-1.92V7.39c0-1.84 1.14-3.39 2.48-3.39h26.69c1.35 0 2.48 1.55 2.48 3.39z"></path>
<path fill="#fff" d="M49.5 22.37v10.1c0 5.67-3.69 10.32-8.27 10.5-.09.01-.19.01-.28.01h-29.9c-4.72 0-8.55-4.72-8.55-10.51v-10.1c0-.2.06-.4.18-.57.09-.14 2.43-3.48 5.46-3.51h.04c.03 0 .06 0 .09.01.7.01 1.37.19 2 .56.74.4 1.43 1.05 2.06 1.92.12.17.19.37.19.58l.03 2.32.12 9.08a.997.997 0 0 1-.98 1.02h-.02a.99.99 0 0 1-.7-.29.966.966 0 0 1-.3-.7v-.01l-.15-11.07c-.74-.95-1.52-1.39-2.36-1.42-1.49.01-3.01 1.57-3.66 2.41v9.77c0 4.69 2.94 8.51 6.55 8.51h29.9c3.61 0 6.55-3.82 6.55-8.51v-9.8c-.65-.96-2.27-2.9-3.63-2.74-.91.1-1.81 1.28-2.54 3.33v9.52a1.003 1.003 0 0 1-1.24.97.997.997 0 0 1-.76-.97v-9.69c0-.11.02-.22.05-.32.67-1.97 1.53-3.34 2.54-4.11.53-.41 1.11-.65 1.73-.72.09-.01.18-.01.27-.01 2.87-.09 5.17 3.49 5.43 3.91.1.16.15.34.15.53z"></path>
<path fill="#fff" d="M16.34 42.98c-.26-1.15-1.28-2-2.5-2h-.11c-1.22 0-2.25.85-2.51 2-.04.18-.06.37-.06.57v3.88A2.57 2.57 0 0 0 13.73 50h.11c1.41 0 2.56-1.15 2.56-2.57v-3.88c0-.2-.02-.39-.06-.57zm-1.94 4.45c0 .31-.26.57-.56.57h-.11c-.31 0-.57-.26-.57-.57v-3.88c0-.31.26-.57.57-.57h.11c.3 0 .56.26.56.57v3.88z"></path>
<path fill="#174885" d="M14.4 43.55v3.88c0 .31-.26.57-.56.57h-.11c-.31 0-.57-.26-.57-.57v-3.88c0-.31.26-.57.57-.57h.11c.3 0 .56.26.56.57z"></path>
<path fill="#fff" d="M41.23 42.97a2.563 2.563 0 0 0-2.5-1.99h-.11c-1.22 0-2.25.85-2.51 2-.04.18-.06.37-.06.57v3.88A2.57 2.57 0 0 0 38.62 50h.11a2.57 2.57 0 0 0 2.57-2.57v-3.88c0-.2-.02-.39-.07-.58zm-1.93 4.46c0 .31-.26.57-.57.57h-.11c-.31 0-.57-.26-.57-.57v-3.88c0-.31.26-.57.57-.57h.11c.31 0 .57.26.57.57v3.88z"></path>
<path fill="#174885" d="M39.3 43.55v3.88c0 .31-.26.57-.57.57h-.11c-.31 0-.57-.26-.57-.57v-3.88c0-.31.26-.57.57-.57h.11c.31 0 .57.26.57.57z"></path>
<path fill="#174885" d="M47.5 22.67v9.8c0 4.69-2.94 8.51-6.55 8.51h-29.9c-3.61 0-6.55-3.82-6.55-8.51V22.7c.65-.84 2.17-2.4 3.66-2.41.84.03 1.62.47 2.36 1.42l.15 11.07v.01a.966.966 0 0 0 .3.7c.18.18.43.29.7.29h28.18c.08 0 .16-.01.24-.03a1.003 1.003 0 0 0 1.24-.97v-9.52c.73-2.05 1.63-3.23 2.54-3.33 1.36-.16 2.98 1.78 3.63 2.74z"></path>
</svg>